<svg width="200" height="200" viewBox="0 0 200 200" xmlns="http://www.w3.org/2000/svg">
  <defs>
    <linearGradient id="albumGradient" x1="0%" y1="0%" x2="100%" y2="100%">
      <stop offset="0%" style="stop-color:#667eea;stop-opacity:1" />
      <stop offset="100%" style="stop-color:#764ba2;stop-opacity:1" />
    </linearGradient>
    <filter id="shadow" x="-20%" y="-20%" width="140%" height="140%">
      <feDropShadow dx="2" dy="2" stdDeviation="3" flood-color="rgba(0,0,0,0.3)"/>
    </filter>
  </defs>
  
  <!-- 背景圆形 -->
  <circle cx="100" cy="100" r="95" fill="url(#albumGradient)" filter="url(#shadow)"/>
  
  <!-- 内圆 -->
  <circle cx="100" cy="100" r="75" fill="none" stroke="rgba(255,255,255,0.2)" stroke-width="1"/>
  
  <!-- 中心圆 -->
  <circle cx="100" cy="100" r="15" fill="rgba(255,255,255,0.9)"/>
  
  <!-- 音符图标 -->
  <g transform="translate(100,100)" fill="rgba(255,255,255,0.8)">
    <!-- 第一个音符 -->
    <g transform="translate(-20,-10)">
      <ellipse cx="0" cy="15" rx="4" ry="3" fill="currentColor"/>
      <rect x="3.5" y="-10" width="1.5" height="25" fill="currentColor"/>
      <path d="M5 -10 Q15 -15 15 -5 L15 10" stroke="currentColor" stroke-width="1.5" fill="none"/>
    </g>
    
    <!-- 第二个音符 -->
    <g transform="translate(5,-5)">
      <ellipse cx="0" cy="10" rx="4" ry="3" fill="currentColor"/>
      <rect x="3.5" y="-15" width="1.5" height="25" fill="currentColor"/>
      <ellipse cx="10" cy="5" rx="4" ry="3" fill="currentColor"/>
      <rect x="13.5" y="-10" width="1.5" height="15" fill="currentColor"/>
      <path d="M5 -15 L15 -10" stroke="currentColor" stroke-width="1.5"/>
    </g>
  </g>
  
  <!-- 装饰性光泽 -->
  <path d="M50 50 Q100 30 150 50 Q120 70 100 60 Q80 70 50 50" fill="rgba(255,255,255,0.1)"/>
</svg>